<svg width="237" height="237" viewBox="0 0 237 237" fill="none" xmlns="http://www.w3.org/2000/svg">
<path d="M227.125 103.688V64.1875H197.5V34.5625H158V103.688H79V34.5625H39.5V64.1875H9.875V103.688H0V133.313H9.875V172.813H39.5V202.438H79V133.313H158V202.438H197.5V172.813H227.125V133.313H237V103.688H227.125ZM39.5 162.938H19.75V133.313V103.688V74.0625H39.5V162.938ZM69.125 103.688V133.313V192.563H49.375V172.813V64.1875V44.4375H69.125V103.688ZM158 123.438H79V113.563H158V123.438ZM187.625 64.1875V172.813V192.563H167.875V133.313V103.688V44.4375H187.625V64.1875ZM217.25 103.688V133.313V162.938H197.5V74.0625H217.25V103.688Z" fill="black"/>
</svg>
