<svg width="238" height="85" viewBox="0 0 264 94" fill="none" xmlns="http://www.w3.org/2000/svg">
<path d="M12.2955 4.18182H30.5L41.9886 51.0909H42.8068L69.7727 4.18182H87.9773L76.3864 74H62.0682L69.6364 28.5568H69.0227L43.5227 73.6591H33.7386L23.2386 28.3864H22.6591L15.0227 74H0.704545L12.2955 4.18182ZM94.0369 93.6364C92.1733 93.6364 90.4688 93.4886 88.9233 93.1932C87.3778 92.9205 86.1051 92.5682 85.1051 92.1364L90.2188 81.2955C91.8324 81.8182 93.2983 82.0909 94.6165 82.1136C95.9574 82.1364 97.1847 81.7955 98.2983 81.0909C99.4119 80.3864 100.435 79.2273 101.366 77.6136L102.662 75.3977L92.8438 21.6364H107.571L112.003 60.1591H112.548L129.901 21.6364H145.821L115.855 79.6591C114.378 82.5 112.628 84.9659 110.605 87.0568C108.605 89.1477 106.23 90.7614 103.48 91.8977C100.753 93.0568 97.6051 93.6364 94.0369 93.6364ZM144.798 74L156.389 4.18182H202.616L200.571 16.3523H169.105L166.378 32.9886H194.776L192.73 45.1591H164.332L159.56 74H144.798ZM200.682 74L209.409 21.6364H223.932L215.205 74H200.682ZM218.17 14.8182C216.011 14.8182 214.227 14.1023 212.818 12.6705C211.432 11.2159 210.864 9.48863 211.114 7.48863C211.364 5.44318 212.341 3.71591 214.045 2.30682C215.75 0.874996 217.682 0.159086 219.841 0.159086C222 0.159086 223.761 0.874996 225.125 2.30682C226.489 3.71591 227.057 5.44318 226.83 7.48863C226.602 9.48863 225.636 11.2159 223.932 12.6705C222.25 14.1023 220.33 14.8182 218.17 14.8182ZM263.418 21.6364L261.611 32.5455H230.043L231.884 21.6364H263.418ZM241.088 9.09091H255.611L247.497 57.9091C247.27 59.25 247.304 60.2955 247.599 61.0455C247.895 61.7727 248.384 62.2841 249.065 62.5795C249.77 62.875 250.611 63.0227 251.588 63.0227C252.27 63.0227 252.963 62.9659 253.668 62.8523C254.372 62.7159 254.906 62.6136 255.27 62.5455L255.815 73.3523C254.997 73.6023 253.895 73.875 252.509 74.1705C251.145 74.4659 249.531 74.6477 247.668 74.7159C244.122 74.8523 241.122 74.3864 238.668 73.3182C236.213 72.2273 234.452 70.5568 233.384 68.3068C232.315 66.0568 232.088 63.2273 232.702 59.8182L241.088 9.09091Z" fill="white"/>
</svg>
